# xmcd
#
# Track frame offsets:
#	150
#	10749
#	26865
#	37738
#	51496
#	63939
#	81307
#	91236
#	103367
#	113540
#	124768
#	140662
#	152065
#	164775
#	184669
#	195228
#	208376
#
# Disc length: 3228 seconds
#
# Revision: 1
# Processed by: cddbd v1.5.2PL0 Copyright (c) Steve Scherf et al.
# Submitted via: EZCDAudioConverter 3.1.5.1
#
DISCID=ed0c9a11
DTITLE=John Lee Hooker - John Lee Hooker [CD 1)
DYEAR=2000
DGENRE=Blues
TTITLE0=Dusty Road
TTITLE1=My First Wife Left Me
TTITLE2=Maudie
TTITLE3=Time Is Marching
TTITLE4=Crawlin' Black Spider
TTITLE5=Blues Before Sunrise
TTITLE6=Run On
TTITLE7=Everybody Rockin'
TTITLE8=I Wanna Walk
TTITLE9=What Do You Say
TTITLE10=Dirty Ground Hog
TTITLE11=I'm A Stranger
TTITLE12=Mambo Chillun
TTITLE13=Half A Stranger
TTITLE14=She's Mine
TTITLE15=Birmingham Blues
TTITLE16=Tupelo
EXTD=
EXTT0=
EXTT1=
EXTT2=
EXTT3=
EXTT4=
EXTT5=
EXTT6=
EXTT7=
EXTT8=
EXTT9=
EXTT10=
EXTT11=
EXTT12=
EXTT13=
EXTT14=
EXTT15=
EXTT16=
PLAYORDER=
